:SAMPLES-PER-SECOND 30
:FULLY-SPECIFIED
:DEGREES
729
root  34.2249 39.5307 9.54405 163.692 82.8366 168.721
RightUpLeg  -3.79779 -22.1025 -13.794
RightLeg  20.7831 -6.43327 -2.9172
RightFoot  -4.94462 -0.351642 5.6888
RightToes  0.000481921 0.542163 -0.142578
Spine  18.6594 1.5368 7.00138
Spine1  9.41496 6.38823 -12.7726
HEad  11.8689 -2.58841 3.24068
LeftShoulder1  6.65213 -13.8838 -32.2167
LeftArm  -5.81994 -26.6154 -47.3459
LeftForeArm  -172.299 -59.5504 -164.651
LeftHand  -0.25398 0.0180481 5.50724
RightShoulder  4.74546 11.2401 26.1077
RightArm  -22.9284 40.5292 41.0682
RightForeArm  157.88 75.001 142.162
RightHand  0.0612602 -1.26025 2.25733
LeftUpLeg  -6.39036 17.2227 5.09963
LeftLeg  19.5547 -0.14521 0.438783
LeftFoot  -5.08478 0.358017 -5.97973
LeftToes  1.06244e-005 4.65869e-005 -8.65518e-006
730
root  34.2143 39.1066 9.28131 148.423 86.3873 155.984
RightUpLeg  -4.28478 -18.5359 -14.0654
RightLeg  25.0793 -5.70701 -3.13613
RightFoot  -6.63119 -0.289522 5.92682
RightToes  0.000481921 0.542163 -0.142578
Spine  19.4996 1.08388 7.08721
Spine1  9.92526 5.6586 -11.3352
HEad  12.869 0.357397 2.00987
LeftShoulder1  6.53871 -14.131 -31.0314
LeftArm  -6.41614 -30.497 -49.6055
LeftForeArm  -173.567 -61.2607 -163.469
LeftHand  -0.25398 0.0180481 5.50724
RightShoulder  4.78944 11.3455 26.1795
RightArm  -23.9617 44.8487 43.3818
RightForeArm  152.511 74.994 141.171
RightHand  -0.122442 0.295451 -2.55079
LeftUpLeg  -5.60057 16.2807 6.00998
LeftLeg  25.0824 3.48667 2.118
LeftFoot  -8.01573 0.223604 -6.03938
LeftToes  1.06244e-005 4.65869e-005 -8.65518e-006
731
root  34.2366 38.6558 9.04562 89.4618 88.2453 99.4789
RightUpLeg  -4.9362 -15.6031 -14.841
RightLeg  29.5157 -4.60533 -3.05132
RightFoot  -8.22539 -0.214538 5.81638
RightToes  0.000481921 0.542163 -0.142578
Spine  20.3985 0.816448 6.1715
Spine1  10.7007 4.84086 -9.48977
HEad  13.4271 2.84725 0.751316
LeftShoulder1  6.41437 -14.3809 -29.7996
LeftArm  -7.15053 -33.4421 -51.2005
LeftForeArm  -173.806 -62.2171 -162.793
LeftHand  -0.25398 0.0180481 5.50724
RightShoulder  4.77326 11.5664 25.5731
RightArm  -23.7418 46.7722 46.8025
RightForeArm  152.118 73.5921 144.444
RightHand  -0.329641 1.32184 -5.91923
LeftUpLeg  -4.36419 16.0595 6.22209
LeftLeg  29.6746 6.16181 4.12296
LeftFoot  -10.501 0.107455 -6.09404
LeftToes  1.06244e-005 4.65869e-005 -8.65518e-006
732
root  34.3257 38.309 8.8697 21.3145 86.2999 33.1448
RightUpLeg  -5.46263 -13.2598 -15.5138
RightLeg  32.6173 -3.54515 -2.69308
RightFoot  -9.39675 -0.159336 5.62943
RightToes  0.000481921 0.542163 -0.142578
Spine  20.4052 0.654887 4.69301
Spine1  12.1095 3.91534 -7.44532
HEad  13.4506 4.98512 -0.260106
LeftShoulder1  6.26353 -14.3233 -29.0561
LeftArm  -7.62956 -35.3321 -51.9842
LeftForeArm  -173.09 -62.2321 -162.845
LeftHand  -0.25398 0.0180481 5.50724
RightShoulder  4.86499 11.7644 25.7683
RightArm  -21.7644 46.395 49.8266
RightForeArm  154.365 70.9738 149.738
RightHand  -0.444109 1.57262 -7.5897
LeftUpLeg  -2.98131 16.7365 6.33641
LeftLeg  32.683 7.75168 5.67221
LeftFoot  -12.3365 0.0198828 -6.2153
LeftToes  1.06244e-005 4.65869e-005 -8.65518e-006
733
root  34.4759 38.1736 8.76746 10.5555 84.2531 23.1246
RightUpLeg  -5.63307 -11.6731 -15.4331
RightLeg  33.5389 -2.87853 -2.30705
RightFoot  -9.87085 -0.139612 5.64713
RightToes  0.000481921 0.542163 -0.142578
Spine  19.5031 0.314275 3.27911
Spine1  13.4856 2.63327 -5.1767
HEad  13.3863 6.89374 -0.941095
LeftShoulder1  6.1643 -13.8749 -29.4047
LeftArm  -7.53926 -35.2245 -52.0447
LeftForeArm  -172.322 -61.4291 -163.462
LeftHand  -0.25398 0.0180481 5.50724
RightShoulder  5.12778 11.8339 27.3977
RightArm  -17.9804 43.0683 51.819
RightForeArm  158.523 67.1889 155.4
RightHand  -0.512211 2.04223 -8.21682
LeftUpLeg  -1.95929 17.9321 6.9157
LeftLeg  33.8973 8.3204 6.32732
LeftFoot  -13.2619 -0.0260964 -6.29385
LeftToes  1.06244e-005 4.65869e-005 -8.65518e-006
734
root  34.6647 38.2889 8.74232 4.89233 83.2337 17.0684
RightUpLeg  -5.48024 -10.933 -14.8088
RightLeg  32.3241 -2.6915 -2.08081
RightFoot  -9.48032 -0.158827 5.79599
RightToes  0.000481921 0.542163 -0.142578
Spine  18.3386 -0.221968 1.96503
Spine1  13.8363 1.01145 -2.7097
HEad  13.7157 8.37453 -1.50936
LeftShoulder1  6.23532 -13.3795 -30.8844
LeftArm  -6.82856 -32.3396 -51.7399
LeftForeArm  -170.906 -59.9186 -164.542
LeftHand  -0.25398 0.0180481 5.50724
RightShoulder  5.43377 11.7302 29.6947
RightArm  -13.4469 35.4607 53.0659
RightForeArm  164.375 62.4649 160.501
RightHand  -0.551857 2.7896 -8.09459
LeftUpLeg  -1.35864 19.1571 7.61581
LeftLeg  33.0833 8.26242 6.11498
LeftFoot  -13.096 -0.0180074 -6.2903
LeftToes  1.06244e-005 4.65869e-005 -8.65518e-006
735
root  34.8635 38.6102 8.78248 4.4165 82.63 15.3159
RightUpLeg  -5.33487 -10.769 -14.2881
RightLeg  29.5466 -2.73848 -1.91509
RightFoot  -8.27094 -0.211715 5.80109
RightToes  0.000481921 0.542163 -0.142578
Spine  17.1729 -0.7343 0.868543
Spine1  13.2377 -0.396925 -0.738624
HEad  14.1195 9.20635 -2.17957
LeftShoulder1  6.42009 -13.1036 -32.6178
LeftArm  -5.66281 -27.799 -51.5593
LeftForeArm  -168.393 -58.0443 -165.828
LeftHand  -0.25398 0.0180481 5.50724
RightShoulder  5.66335 11.5007 31.7957
RightArm  -8.73983 24.1555 53.8327
RightForeArm  168.946 58.1545 163.903
RightHand  -0.542678 3.27023 -7.55907
LeftUpLeg  -0.833224 20.5055 7.75263
LeftLeg  30.1447 8.00356 5.3459
LeftFoot  -11.9107 0.0401497 -6.27703
LeftToes  1.06244e-005 4.65869e-005 -8.65518e-006
736
root  35.0298 39.0297 8.85775 6.99829 81.7052 16.0712
RightUpLeg  -5.52681 -10.8142 -13.979
RightLeg  25.8791 -2.59225 -1.59779
RightFoot  -6.47441 -0.27805 5.51109
RightToes  0.000481921 0.542163 -0.142578
Spine  15.7916 -1.11229 0.473583
Spine1  12.6533 -1.157 0.0629715
HEad  13.8477 9.76146 -3.13693
LeftShoulder1  6.48863 -12.8396 -33.6571
LeftArm  -4.56167 -24.2925 -51.5506
LeftForeArm  -167.023 -56.7409 -166.62
LeftHand  -0.25398 0.0180481 5.50724
RightShoulder  5.79805 11.3468 33.0937
RightArm  -3.73559 13.0624 54.2583
RightForeArm  169.905 56.3152 165.012
RightHand  -0.474111 3.32831 -6.60363
LeftUpLeg  -0.204274 22.3371 7.30019
LeftLeg  25.6542 7.73454 4.39361
LeftFoot  -10.0141 0.132451 -6.25833
LeftToes  1.06244e-005 4.65869e-005 -8.65518e-006
